{"title":"The.Brother.Load.4.2013.WEBRip.SS.x264.Iou1","uid":8963734,"size":1552885987,"categoryP":"porn","categoryS":"movies","magnet":"?xt=urn:btih:6b92d6b80431e9a277501317d4f21fb7c451dd67&amp;dn=The.Brother.Load.4.2013.WEBRip.SS.x264.Iou1&amp;tr=udp%3A%2F%2Ftracker.openbittorrent.com%3A80&amp;tr=udp%3A%2F%2Fopen.demonii.com%3A1337&amp;tr=udp%3A%2F%2Ftracker.coppersurfer.tk%3A6969&amp;tr=udp%3A%2F%2Fexodus.desync.com%3A6969","seeders":0,"leechers":0,"uploader":"jaybee211","files":-1,"time":1380166118,"description":"Genre                                    : XXX\nFormat                                   : MPEG-4\nFormat profile                           : Base Media / Version 2\nCodec ID                                 : mp42\nFile size                                : 1.44 GiB\nDuration                                 : 2h 46mn 58s\nOverall bit rate mode                    : Variable\nOverall bit rate                         : 1 240 Kbps\n\nVideo\nID                                       : 1\nFormat                                   : AVC\nFormat/Info                              : Advanced Video Codec\nFormat profile                           : &lt;a class=&quot;__cf_email__&quot; href=&quot;/cdn-cgi/l/email-protection&quot; data-cfemail=&quot;5b13323c331b1768756b&quot;&gt;[email&amp;#160;protected]&lt;/a&gt;&lt;script cf-hash='f9e31' type=&quot;text/javascript&quot;&gt;\n/* &lt;![CDATA[ */!function(){try{var t=&quot;currentScript&quot;in document?document.currentScript:function(){for(var t=document.getElementsByTagName(&quot;script&quot;),e=t.length;e--;)if(t[e].getAttribute(&quot;cf-hash&quot;))return t[e]}();if(t&amp;&amp;t.previousSibling){var e,r,n,i,c=t.previousSibling,a=c.getAttribute(&quot;data-cfemail&quot;);if(a){for(e=&quot;&quot;,r=parseInt(a.substr(0,2),16),n=2;a.length-n;n+=2)i=parseInt(a.substr(n,2),16)^r,e+=String.fromCharCode(i);e=document.createTextNode(e),c.parentNode.replaceChild(e,c)}}}catch(u){}}();/* ]]&gt; */&lt;/script&gt;\nFormat settings, CABAC                   : Yes\nFormat settings, ReFrames                : 4 frames\nCodec ID                                 : avc1\nCodec ID/Info                            : Advanced Video Coding\nDuration                                 : 2h 46mn 58s\nBit rate mode                            : Variable\nBit rate                                 : 1 176 Kbps\nMaximum bit rate                         : 2 276 Kbps\nWidth                                    : 720 pixels\nHeight                                   : 404 pixels\nDisplay aspect ratio                     : 16:9\nFrame rate mode                          : Constant\nFrame rate                               : 29.970 fps\nStandard                                 : NTSC\nColor space                              : YUV\nChroma subsampling                       : 4:2:0\nBit depth                                : 8 bits\nScan type                                : Progressive\nBits/(Pixel*Frame)                       : 0.135\nStream size                              : 1.37 GiB (95%)\n\nAudio\nID                                       : 2\nFormat                                   : AAC\nFormat/Info                              : Advanced Audio Codec\nFormat profile                           : LC\nCodec ID                                 : 40\nDuration                                 : 2h 46mn 58s\nBit rate mode                            : Variable\nBit rate                                 : 59.4 Kbps\nMaximum bit rate                         : 71.3 Kbps\nChannel(s)                               : 2 channels\nChannel positions                        : Front: L R\nSampling rate                            : 48.0 KHz\nCompression mode                         : Lossy\nStream size                              : 72 MiB (5%)\nLanguage                                 : English\n\nScreens. &lt;a href=&quot; http://bayimg.com/oaaMJAAFa&quot; rel=&quot;nofollow&quot; target=&quot;_NEW&quot;&gt; http://bayimg.com/oaaMJAAFa&lt;/a&gt;\n\n         &lt;a href=&quot; http://bayimg.com/oAAmMaAFA&quot; rel=&quot;nofollow&quot; target=&quot;_NEW&quot;&gt; http://bayimg.com/oAAmMaAFA&lt;/a&gt;\n\n         &lt;a href=&quot; http://bayimg.com/oaAmOaAfa&quot; rel=&quot;nofollow&quot; target=&quot;_NEW&quot;&gt; http://bayimg.com/oaAmOaAfa&lt;/a&gt;\n\n         &lt;a href=&quot; http://bayimg.com/pAAmAAafA&quot; rel=&quot;nofollow&quot; target=&quot;_NEW&quot;&gt; http://bayimg.com/pAAmAAafA&lt;/a&gt;\n\n         &lt;a href=&quot; http://bayimg.com/pAaMbaAfA&quot; rel=&quot;nofollow&quot; target=&quot;_NEW&quot;&gt; http://bayimg.com/pAaMbaAfA&lt;/a&gt;\n\nCover. &lt;a href=&quot; http://bayimg.com/paAmCaaFa&quot; rel=&quot;nofollow&quot; target=&quot;_NEW&quot;&gt; http://bayimg.com/paAmCaaFa&lt;/a&gt;\n\nEnjoy.","torrent":{"xt":"urn:btih:6b92d6b80431e9a277501317d4f21fb7c451dd67","amp;dn":"The.Brother.Load.4.2013.WEBRip.SS.x264.Iou1","amp;tr":["udp%3A%2F%2Ftracker.openbittorrent.com%3A80","udp%3A%2F%2Fopen.demonii.com%3A1337","udp%3A%2F%2Ftracker.coppersurfer.tk%3A6969","udp%3A%2F%2Fexodus.desync.com%3A6969"],"infoHash":"6b92d6b80431e9a277501317d4f21fb7c451dd67","infoHashBuffer":{"type":"Buffer","data":[107,146,214,184,4,49,233,162,119,80,19,23,212,242,31,183,196,81,221,103]},"announce":[],"urlList":[]}}